<svg xmlns="http://www.w3.org/2000/svg" width="1200" height="630" viewBox="0 0 1200 630">
  <defs>
    <linearGradient id="bg" x1="0" y1="0" x2="1" y2="1">
      <stop offset="0" stop-color="#0b8bee"/>
      <stop offset="1" stop-color="#075aa0"/>
    </linearGradient>
  </defs>
  <rect width="1200" height="630" fill="url(#bg)"/>

  <!-- subtle frame -->
  <rect x="28" y="28" width="1144" height="574" rx="22" fill="none" stroke="#ffffff" stroke-opacity="0.18" stroke-width="2"/>

  <!-- glyph -->
  <g transform="translate(96 178) scale(4.2)">
    <rect width="64" height="64" rx="14" fill="#ffffff"/>
    <circle cx="32" cy="33" r="13" fill="#0b8bee"/>
    <circle cx="27.5" cy="31" r="2.2" fill="#ffffff"/>
    <circle cx="36.5" cy="31" r="2.2" fill="#ffffff"/>
    <path d="M26.5 37.5 q5.5 5.5 11 0" fill="none" stroke="#ffffff" stroke-width="2.4" stroke-linecap="round"/>
    <g fill="none" stroke="#ffcd00" stroke-width="3" stroke-linecap="round" stroke-linejoin="round">
      <path d="M15 23 V16 H22"/>
      <path d="M49 23 V16 H42"/>
      <path d="M15 50 V57 H22"/>
      <path d="M49 50 V57 H42"/>
    </g>
  </g>

  <!-- text -->
  <g font-family="'Hiragino Sans','Noto Sans JP','Yu Gothic',sans-serif" fill="#ffffff">
    <text x="408" y="232" font-size="66" font-weight="700" letter-spacing="1">NDL 顔ファインダー</text>
    <text x="412" y="300" font-size="34" font-weight="500" fill="#eaf5ff">NDLデジタルコレクションの「顔」を</text>
    <text x="412" y="348" font-size="34" font-weight="500" fill="#eaf5ff">IIIF で検索・閲覧・領域表示する</text>

    <!-- badges (left-aligned text inside pills) -->
    <g font-size="24" font-weight="600">
      <rect x="410" y="402" width="238" height="54" rx="27" fill="#ffffff" fill-opacity="0.16"/>
      <text x="434" y="436">IIIF 領域で動的取得</text>
      <rect x="662" y="402" width="268" height="54" rx="27" fill="#ffffff" fill-opacity="0.16"/>
      <text x="686" y="436">Curation Viewer 連携</text>
      <rect x="944" y="402" width="196" height="54" rx="27" fill="#ffcd00"/>
      <text x="968" y="436" fill="#0b3a63">Public Domain</text>
    </g>

    <text x="412" y="528" font-size="24" fill="#cfe6fb">出典: 国立国会図書館デジタルコレクション(IIIF / Public Domain Mark)</text>
  </g>
</svg>
